<?xml version="1.0" encoding="utf-8"?>
<!-- Svg Vector Icons : http://www.onlinewebfonts.com/icon -->
<!DOCTYPE svg PUBLIC "-//W3C//DTD SVG 1.1//EN" "http://www.w3.org/Graphics/SVG/1.1/DTD/svg11.dtd">
<svg version="1.1" xmlns="http://www.w3.org/2000/svg" xmlns:xlink="http://www.w3.org/1999/xlink" x="0px" y="0px" viewBox="0 0 1000 1000" enable-background="new 0 0 1000 1000" xml:space="preserve">
<metadata> Svg Vector Icons : http://www.onlinewebfonts.com/icon </metadata>
<g><path d="M853.6,503.8c0,117.4,0.4,234.7-0.1,352.1c-0.3,89.5-43.5,133.1-132.5,133.8c-86.3,0.6-172.5,0.4-258.8,0.1c-56.5-0.2-70.8-14.4-71.3-69.5c-0.3-35.3-0.1-70.7,0-106c0.1-65.3-2.7-68.1-66.2-68.1c-38.2,0-76.4,0.2-114.5-0.5c-46-0.8-63.3-15.9-63.5-60.4c-0.7-183.8-1.3-367.7,0.2-551.5c0.6-77.3,44.4-121.2,122.3-122.2c152.7-2,305.5-1.8,458.2-0.3c81.8,0.8,124.9,45.3,125.8,127.8C854.6,260.5,853.6,382.2,853.6,503.8z M496.7,569.1c11.3,0,22.7,1,33.9-0.2c62.9-6.4,121.2-55.1,127.7-112.1c1.7-15-6.7-33.1-26.8-39.5c-21.7-4.7-30,5.9-37.7,17c-3.4,5-5.8,12.6-8.8,19c-18.2,39.3-50.6,56.5-92.2,55c-41.7-1.4-72.8-20.9-87.6-61.7c-19.1-52.7-19.2-105.7,3-157.2c22.6-52.5,82.6-77.2,130.2-50.9c20.8,11.5,36.9,33.7,51.6,53.6c14,19.1,38.9,25.1,59,8.6c11.5-9.5,10.8-31.6,3.1-41.5c-23.1-30-50.2-63.9-83.4-77.8c-72.9-30.5-146.6-20.7-202.8,39.9c-66,71.1-67.1,156.4-35.2,242.2C358.5,538.4,417.5,571.6,496.7,569.1z"/><path d="M337.8,977.8c-61.3-60-120-117.3-182.7-178.6c52.9,0,103-2.2,152.6,1.7c10.9,0.9,27.7,22.9,28.7,36.3C340,883.3,337.8,929.8,337.8,977.8z"/></g>
</svg>